<mxfile host="app.diagrams.net" modified="2024-04-17T08:47:49.109Z" agent="Mozilla/5.0 (Macintosh; Intel Mac OS X 10_15_7) AppleWebKit/537.36 (KHTML, like Gecko) Chrome/123.0.0.0 Safari/537.36" version="22.1.18" etag="ZFfx_cZhGBv8Om8R_cEg" type="github">
  <diagram name="페이지-1" id="d3oblBNXOTVXsNcYjB4c">
    <mxGraphModel>
      <root>
        <mxCell id="0" />
        <mxCell id="1" parent="0" />
      </root>
    </mxGraphModel>
  </diagram>
</mxfile>
